# xmcd CD database file
#
# Track frame offsets:
#	150
#	23290
#	44887
#	60520
#	80150
#	99267
#	131585
#	146670
#	161715
#	187262
#	199222
#
# Disc length: 2883 seconds
#
# Revision: 1
# Processed by: cddbd v1.4PL0 Copyright (c) Steve Scherf et al.
# Submitted via: jetAudio 5
#
DISCID=9d0b410b
DTITLE=Nappy Brown and the Electric City Band - Who's Been Foolin' You
DYEAR=1900
DGENRE=
TTITLE0=Who's Been Foolin You
TTITLE1=I Cried Like a Baby
TTITLE2=Is It True
TTITLE3=Bye Bye Baby
TTITLE4=Jumpstart
TTITLE5=I Don't Believe
TTITLE6=I'm Too Cool
TTITLE7=Buy Me An Airplane
TTITLE8=I'm Getting Lonesome
TTITLE9=Piddly Patter
TTITLE10=I Wonder
EXTD=
EXTT0=
EXTT1=
EXTT2=
EXTT3=
EXTT4=
EXTT5=
EXTT6=
EXTT7=
EXTT8=
EXTT9=
EXTT10=
PLAYORDER=
